<svg width="16" height="10" viewBox="0 0 16 10" fill="none" xmlns="http://www.w3.org/2000/svg">
<path d="M1.41477 9H0.306818L3.51136 0.272727H4.60227L7.80682 9H6.69886L4.09091 1.65341H4.02273L1.41477 9ZM1.82386 5.59091H6.28977V6.52841H1.82386V5.59091ZM15.7788 3H14.7219C14.6594 2.69602 14.5501 2.42898 14.3938 2.19886C14.2404 1.96875 14.0529 1.77557 13.8313 1.61932C13.6126 1.46023 13.3697 1.34091 13.1026 1.26136C12.8356 1.18182 12.5572 1.14205 12.2674 1.14205C11.739 1.14205 11.2603 1.27557 10.8313 1.54261C10.4052 1.80966 10.0657 2.20312 9.81286 2.72301C9.56286 3.2429 9.43786 3.88068 9.43786 4.63636C9.43786 5.39205 9.56286 6.02983 9.81286 6.54972C10.0657 7.0696 10.4052 7.46307 10.8313 7.73011C11.2603 7.99716 11.739 8.13068 12.2674 8.13068C12.5572 8.13068 12.8356 8.09091 13.1026 8.01136C13.3697 7.93182 13.6126 7.81392 13.8313 7.65767C14.0529 7.49858 14.2404 7.30398 14.3938 7.07386C14.5501 6.84091 14.6594 6.57386 14.7219 6.27273H15.7788C15.6992 6.71875 15.5543 7.1179 15.3441 7.47017C15.1339 7.82244 14.8725 8.12216 14.56 8.36932C14.2475 8.61364 13.8967 8.79972 13.5075 8.92756C13.1211 9.0554 12.7077 9.11932 12.2674 9.11932C11.5231 9.11932 10.8612 8.9375 10.2816 8.57386C9.70206 8.21023 9.24609 7.69318 8.91371 7.02273C8.58132 6.35227 8.41513 5.55682 8.41513 4.63636C8.41513 3.71591 8.58132 2.92045 8.91371 2.25C9.24609 1.57955 9.70206 1.0625 10.2816 0.698864C10.8612 0.335227 11.5231 0.153409 12.2674 0.153409C12.7077 0.153409 13.1211 0.217329 13.5075 0.34517C13.8967 0.473011 14.2475 0.660511 14.56 0.90767C14.8725 1.15199 15.1339 1.45028 15.3441 1.80256C15.5543 2.15199 15.6992 2.55114 15.7788 3Z" fill="#6C747B"/>
</svg>
